<svg xmlns="http://www.w3.org/2000/svg" width="349" height="146" viewBox="0 0 349 146" version="1.1"><path d="M 31.362 33.750 C 31.727 39.112, 32.889 48.813, 33.944 55.306 L 35.864 67.112 33.432 70.695 C 30.366 75.213, 30.389 76.263, 33.750 85.193 L 36.500 92.500 37.035 85.500 L 37.569 78.500 39.320 82.303 C 40.283 84.395, 41.393 87.545, 41.786 89.303 C 42.402 92.063, 42.568 91.643, 43 86.233 C 43.627 78.371, 45.167 78.143, 46.597 85.700 C 47.963 92.918, 49.141 90.061, 49.361 78.997 L 49.500 72.014 45.250 68.123 C 42.913 65.982, 41 63.315, 41 62.196 C 41 59.370, 36.230 35.632, 34.380 29.250 C 31.904 20.710, 30.607 22.645, 31.362 33.750 M 153 57.530 L 153 73.060 165.750 72.780 L 178.500 72.500 178.500 69.500 L 178.500 66.500 168.750 66.214 L 159 65.928 159 53.964 L 159 42 156 42 L 153 42 153 57.530 M 186.200 43.200 C 184.048 45.352, 184.584 69.313, 186.829 71.345 C 189.965 74.183, 209.371 73.736, 211.443 70.777 C 222.323 55.244, 199.304 30.096, 186.200 43.200 M 220.224 57.250 L 220.500 72.500 223.500 72.500 C 226.315 72.500, 226.519 72.237, 226.807 68.250 L 227.115 64 231.969 64 C 236.999 64, 242 67.811, 242 71.643 C 242 72.678, 242.839 73.036, 244.750 72.816 C 248.082 72.433, 249.132 67.908, 246.550 65.055 C 245.118 63.473, 245.111 63.153, 246.475 62.021 C 248.398 60.424, 248.664 45.064, 246.800 43.200 C 245.991 42.391, 241.416 42, 232.774 42 L 219.948 42 220.224 57.250 M 256 57.530 L 256 73.060 268.750 72.780 L 281.500 72.500 281.500 69.500 L 281.500 66.500 271.750 66.214 C 256.998 65.781, 256.310 61, 271 61 L 280 61 280 57.500 L 280 54 271 54 L 262 54 262 51 L 262 48 272 48 L 282 48 282 45 L 282 42 269 42 L 256 42 256 57.530 M 289.224 57.250 L 289.500 72.500 292.250 72.816 L 295 73.133 295 62.944 C 295 51.514, 295.463 51.246, 300.720 59.628 C 304.517 65.685, 307.158 65.340, 312.183 58.133 L 315.925 52.766 316.212 62.633 L 316.500 72.500 319.500 72.500 L 322.500 72.500 322.776 57.250 L 323.052 42 319.680 42 C 316.640 42, 315.824 42.689, 311.404 48.984 C 305.448 57.465, 306.353 57.464, 300.570 49 C 296.218 42.630, 295.479 42, 292.368 42 L 288.948 42 289.224 57.250 M 191 57 L 191 66 198.500 66 L 206 66 206 57 L 206 48 198.500 48 L 191 48 191 57 M 227 52.500 L 227 57 234.500 57 L 242 57 242 52.500 L 242 48 234.500 48 L 227 48 227 52.500 M 80.200 57.200 C 77.723 59.677, 78.728 64.781, 81.826 65.462 C 86.456 66.479, 90 64.570, 90 61.060 C 90 56.658, 83.358 54.042, 80.200 57.200 M 92.242 67.034 C 85.988 69.547, 87.607 76, 94.491 76 C 100.041 76, 102.138 70.611, 97.777 67.557 C 95.264 65.796, 95.312 65.800, 92.242 67.034 M 72.638 71.019 C 69.613 74.613, 70.317 77.540, 74.457 78.578 C 80.099 79.995, 84.070 76.014, 81.788 71.231 C 79.853 67.174, 75.949 67.084, 72.638 71.019 M 121.656 69.133 C 118.914 70.726, 116.714 76.598, 117.976 78.955 C 120.924 84.464, 131.453 79.248, 129.344 73.322 C 127.686 68.661, 124.992 67.193, 121.656 69.133 M 55.559 76.333 C 54.380 77.196, 53.945 78.645, 54.171 80.967 C 54.648 85.863, 56.994 86.164, 57.022 81.333 L 57.044 77.500 58.851 79.849 C 60.536 82.040, 60.771 82.086, 62.322 80.536 C 63.236 79.621, 64.438 79.153, 64.992 79.495 C 66.333 80.324, 66.276 83.324, 64.893 84.707 C 64.084 85.516, 64.487 86.273, 66.393 87.522 C 69.656 89.660, 69.682 90.612, 66.500 91.411 C 63.087 92.267, 63.340 94, 66.878 94 C 70.842 94, 72.635 91.689, 71.168 88.470 C 70.549 87.112, 69.563 86, 68.976 86 C 68.312 86, 68.142 84.761, 68.525 82.719 C 69.274 78.728, 66.407 75.419, 63.109 76.465 C 61.991 76.820, 60.221 76.653, 59.176 76.094 C 57.825 75.371, 56.780 75.440, 55.559 76.333 M 102.113 80.584 C 100.995 82.005, 99.622 82.884, 99.061 82.538 C 97.300 81.449, 94 83.955, 94 86.380 C 94 88.770, 96.775 92, 98.829 92 C 100.457 92, 100.292 90.487, 98.500 89 C 95.870 86.817, 96.637 84.761, 99.821 85.461 C 102.175 85.978, 102.834 85.660, 103.800 83.540 C 105.387 80.056, 107.909 80.295, 108.650 84 C 109.174 86.622, 109.675 87, 112.625 87 C 116.544 87, 116.932 88.129, 113.750 90.269 C 110.903 92.182, 112.185 93.692, 115.409 92.223 C 120.145 90.065, 119.523 84, 114.566 84 C 113.292 84, 111.448 82.745, 110.158 81 C 107.436 77.318, 104.790 77.181, 102.113 80.584 M 77.137 84.250 C 74.595 88.260, 75.761 89.890, 81.746 90.693 C 86.417 91.319, 90 88.682, 90 84.617 C 90 79.745, 80.169 79.465, 77.137 84.250 M 153 96.566 L 153 112.133 155.750 111.816 L 158.500 111.500 158.776 96.250 L 159.052 81 156.026 81 L 153 81 153 96.566 M 167 96.566 L 167 112.133 169.750 111.816 C 172.211 111.533, 172.532 111.053, 172.807 107.250 L 173.115 103 181.903 103 C 193.305 103, 194 102.332, 194 91.371 C 194 80.889, 194.157 81, 179.300 81 L 167 81 167 96.566 M 202.035 82.934 C 196.902 92.525, 201.655 99, 213.829 99 L 223 99 223 102 L 223 105 215.607 105 C 209.817 105, 208.084 104.660, 207.613 103.433 C 206.639 100.897, 201.574 101.978, 201.173 104.808 C 200.353 110.589, 203.041 112, 214.868 112 C 228.225 112, 229 111.444, 229 101.871 C 229 93.362, 228.523 93, 217.300 93 L 208 93 208 90 L 208 87 215.500 87 C 221.500 87, 223 87.300, 223 88.500 C 223 89.500, 224 90, 226 90 C 229.278 90, 230.463 84.863, 227.800 82.200 C 225.557 79.957, 203.289 80.592, 202.035 82.934 M 237 94.845 C 237 112.354, 236.718 112, 250.674 112 C 264.241 112, 264 112.313, 264 94.671 L 264 81 261 81 L 258 81 258 93 L 258 105 250.500 105 L 243 105 243 93 L 243 81 240 81 L 237 81 237 94.845 M 272.224 96.250 L 272.500 111.500 275.250 111.816 L 278 112.133 278 101.944 C 278 90.514, 278.463 90.246, 283.720 98.628 C 287.517 104.685, 290.158 104.340, 295.183 97.133 L 298.925 91.766 299.212 101.633 L 299.500 111.500 302.500 111.500 L 305.500 111.500 305.776 96.250 L 306.052 81 302.680 81 C 299.640 81, 298.824 81.689, 294.404 87.984 C 288.448 96.465, 289.353 96.464, 283.570 88 C 279.218 81.630, 278.479 81, 275.368 81 L 271.948 81 272.224 96.250 M 131.097 85.429 C 127.407 88.151, 124.495 91.828, 125.351 92.685 C 127.351 94.684, 137.685 87.555, 136.769 84.808 C 136.079 82.736, 134.514 82.908, 131.097 85.429 M 173 91.500 L 173 96 180.500 96 L 188 96 188 91.500 L 188 87 180.500 87 L 173 87 173 91.500 M 28 99.860 C 28 104.993, 36.457 115.341, 48.500 124.943 C 58.800 133.155, 58.138 133, 82.836 133 L 104.772 133 111.136 128.776 C 123.691 120.442, 137 105.140, 137 99.040 C 137 97.012, 136.688 97, 82.500 97 L 28 97 28 99.860" stroke="none" fill="#fcf4f5" fill-rule="evenodd"/><path d="M 205 13.057 C 159.625 17.923, 121.825 21.888, 121 21.868 C 120.175 21.848, 123.278 20.979, 127.895 19.937 C 132.513 18.895, 136.470 17.863, 136.690 17.643 C 136.910 17.423, 125.257 17.469, 110.795 17.745 C 95.729 18.032, 76.386 17.747, 65.500 17.076 C 55.050 16.433, 41.550 15.677, 35.500 15.397 L 24.500 14.888 14.500 19.276 C 3.608 24.056, 2.552 25.390, 5.300 30.899 C 7.482 35.274, 5.994 55.818, 2.989 62.803 C 0.811 67.867, 0.791 68.255, 2.129 79.743 C 3.688 93.126, 3.546 97.486, 1.331 104.363 C -1.295 112.515, 0.687 125.888, 5.241 130.750 C 6.400 131.988, 6.820 133, 6.174 133 C 5.436 133, 5 134.805, 5 137.857 L 5 142.715 21.750 142.665 C 31.712 142.635, 45.187 143.361, 55 144.454 L 71.500 146.294 112.406 142.636 C 134.904 140.624, 153.455 139.122, 153.631 139.298 C 153.807 139.474, 148.763 140.461, 142.422 141.491 C 121.074 144.960, 126.640 145.099, 177.500 142.370 C 208.613 140.700, 222.045 140.951, 237.500 143.488 C 256.921 146.676, 330.837 140.510, 334.787 135.373 C 340.996 127.297, 344.114 114.098, 344.066 96.094 C 344.051 90.371, 344.704 82.496, 345.518 78.594 C 348.186 65.806, 347.249 56.593, 342.580 49.712 L 340.188 46.188 342.597 42.642 L 345.007 39.096 338.833 38.798 C 331.961 38.466, 330.364 36.920, 334.937 35.026 C 352.263 27.850, 342.426 17.060, 318.500 16.997 C 306.055 16.964, 304 16.301, 304 12.324 C 304 2.010, 308.314 1.978, 205 13.057 M 31.362 33.750 C 31.727 39.112, 32.889 48.813, 33.944 55.306 L 35.864 67.112 33.432 70.695 C 30.366 75.213, 30.389 76.263, 33.750 85.193 L 36.500 92.500 37.035 85.500 L 37.569 78.500 39.320 82.303 C 40.283 84.395, 41.393 87.545, 41.786 89.303 C 42.402 92.063, 42.568 91.643, 43 86.233 C 43.627 78.371, 45.167 78.143, 46.597 85.700 C 47.963 92.918, 49.141 90.061, 49.361 78.997 L 49.500 72.014 45.250 68.123 C 42.913 65.982, 41 63.315, 41 62.196 C 41 59.370, 36.230 35.632, 34.380 29.250 C 31.904 20.710, 30.607 22.645, 31.362 33.750 M 153 57.530 L 153 73.060 165.750 72.780 L 178.500 72.500 178.500 69.500 L 178.500 66.500 168.750 66.214 L 159 65.928 159 53.964 L 159 42 156 42 L 153 42 153 57.530 M 186.200 43.200 C 184.048 45.352, 184.584 69.313, 186.829 71.345 C 189.965 74.183, 209.371 73.736, 211.443 70.777 C 222.323 55.244, 199.304 30.096, 186.200 43.200 M 220.224 57.250 L 220.500 72.500 223.500 72.500 C 226.315 72.500, 226.519 72.237, 226.807 68.250 L 227.115 64 231.969 64 C 236.999 64, 242 67.811, 242 71.643 C 242 72.678, 242.839 73.036, 244.750 72.816 C 248.082 72.433, 249.132 67.908, 246.550 65.055 C 245.118 63.473, 245.111 63.153, 246.475 62.021 C 248.398 60.424, 248.664 45.064, 246.800 43.200 C 245.991 42.391, 241.416 42, 232.774 42 L 219.948 42 220.224 57.250 M 256 57.530 L 256 73.060 268.750 72.780 L 281.500 72.500 281.500 69.500 L 281.500 66.500 271.750 66.214 C 256.998 65.781, 256.310 61, 271 61 L 280 61 280 57.500 L 280 54 271 54 L 262 54 262 51 L 262 48 272 48 L 282 48 282 45 L 282 42 269 42 L 256 42 256 57.530 M 289.224 57.250 L 289.500 72.500 292.250 72.816 L 295 73.133 295 62.944 C 295 51.514, 295.463 51.246, 300.720 59.628 C 304.517 65.685, 307.158 65.340, 312.183 58.133 L 315.925 52.766 316.212 62.633 L 316.500 72.500 319.500 72.500 L 322.500 72.500 322.776 57.250 L 323.052 42 319.680 42 C 316.640 42, 315.824 42.689, 311.404 48.984 C 305.448 57.465, 306.353 57.464, 300.570 49 C 296.218 42.630, 295.479 42, 292.368 42 L 288.948 42 289.224 57.250 M 191 57 L 191 66 198.500 66 L 206 66 206 57 L 206 48 198.500 48 L 191 48 191 57 M 227 52.500 L 227 57 234.500 57 L 242 57 242 52.500 L 242 48 234.500 48 L 227 48 227 52.500 M 80.200 57.200 C 77.723 59.677, 78.728 64.781, 81.826 65.462 C 86.456 66.479, 90 64.570, 90 61.060 C 90 56.658, 83.358 54.042, 80.200 57.200 M 92.242 67.034 C 85.988 69.547, 87.607 76, 94.491 76 C 100.041 76, 102.138 70.611, 97.777 67.557 C 95.264 65.796, 95.312 65.800, 92.242 67.034 M 72.638 71.019 C 69.613 74.613, 70.317 77.540, 74.457 78.578 C 80.099 79.995, 84.070 76.014, 81.788 71.231 C 79.853 67.174, 75.949 67.084, 72.638 71.019 M 121.656 69.133 C 118.914 70.726, 116.714 76.598, 117.976 78.955 C 120.924 84.464, 131.453 79.248, 129.344 73.322 C 127.686 68.661, 124.992 67.193, 121.656 69.133 M 55.559 76.333 C 54.380 77.196, 53.945 78.645, 54.171 80.967 C 54.648 85.863, 56.994 86.164, 57.022 81.333 L 57.044 77.500 58.851 79.849 C 60.536 82.040, 60.771 82.086, 62.322 80.536 C 63.236 79.621, 64.438 79.153, 64.992 79.495 C 66.333 80.324, 66.276 83.324, 64.893 84.707 C 64.084 85.516, 64.487 86.273, 66.393 87.522 C 69.656 89.660, 69.682 90.612, 66.500 91.411 C 63.087 92.267, 63.340 94, 66.878 94 C 70.842 94, 72.635 91.689, 71.168 88.470 C 70.549 87.112, 69.563 86, 68.976 86 C 68.312 86, 68.142 84.761, 68.525 82.719 C 69.274 78.728, 66.407 75.419, 63.109 76.465 C 61.991 76.820, 60.221 76.653, 59.176 76.094 C 57.825 75.371, 56.780 75.440, 55.559 76.333 M 102.113 80.584 C 100.995 82.005, 99.622 82.884, 99.061 82.538 C 97.300 81.449, 94 83.955, 94 86.380 C 94 88.770, 96.775 92, 98.829 92 C 100.457 92, 100.292 90.487, 98.500 89 C 95.870 86.817, 96.637 84.761, 99.821 85.461 C 102.175 85.978, 102.834 85.660, 103.800 83.540 C 105.387 80.056, 107.909 80.295, 108.650 84 C 109.174 86.622, 109.675 87, 112.625 87 C 116.544 87, 116.932 88.129, 113.750 90.269 C 110.903 92.182, 112.185 93.692, 115.409 92.223 C 120.145 90.065, 119.523 84, 114.566 84 C 113.292 84, 111.448 82.745, 110.158 81 C 107.436 77.318, 104.790 77.181, 102.113 80.584 M 77.137 84.250 C 74.595 88.260, 75.761 89.890, 81.746 90.693 C 86.417 91.319, 90 88.682, 90 84.617 C 90 79.745, 80.169 79.465, 77.137 84.250 M 153 96.566 L 153 112.133 155.750 111.816 L 158.500 111.500 158.776 96.250 L 159.052 81 156.026 81 L 153 81 153 96.566 M 167 96.566 L 167 112.133 169.750 111.816 C 172.211 111.533, 172.532 111.053, 172.807 107.250 L 173.115 103 181.903 103 C 193.305 103, 194 102.332, 194 91.371 C 194 80.889, 194.157 81, 179.300 81 L 167 81 167 96.566 M 202.035 82.934 C 196.902 92.525, 201.655 99, 213.829 99 L 223 99 223 102 L 223 105 215.607 105 C 209.817 105, 208.084 104.660, 207.613 103.433 C 206.639 100.897, 201.574 101.978, 201.173 104.808 C 200.353 110.589, 203.041 112, 214.868 112 C 228.225 112, 229 111.444, 229 101.871 C 229 93.362, 228.523 93, 217.300 93 L 208 93 208 90 L 208 87 215.500 87 C 221.500 87, 223 87.300, 223 88.500 C 223 89.500, 224 90, 226 90 C 229.278 90, 230.463 84.863, 227.800 82.200 C 225.557 79.957, 203.289 80.592, 202.035 82.934 M 237 94.845 C 237 112.354, 236.718 112, 250.674 112 C 264.241 112, 264 112.313, 264 94.671 L 264 81 261 81 L 258 81 258 93 L 258 105 250.500 105 L 243 105 243 93 L 243 81 240 81 L 237 81 237 94.845 M 272.224 96.250 L 272.500 111.500 275.250 111.816 L 278 112.133 278 101.944 C 278 90.514, 278.463 90.246, 283.720 98.628 C 287.517 104.685, 290.158 104.340, 295.183 97.133 L 298.925 91.766 299.212 101.633 L 299.500 111.500 302.500 111.500 L 305.500 111.500 305.776 96.250 L 306.052 81 302.680 81 C 299.640 81, 298.824 81.689, 294.404 87.984 C 288.448 96.465, 289.353 96.464, 283.570 88 C 279.218 81.630, 278.479 81, 275.368 81 L 271.948 81 272.224 96.250 M 131.097 85.429 C 127.407 88.151, 124.495 91.828, 125.351 92.685 C 127.351 94.684, 137.685 87.555, 136.769 84.808 C 136.079 82.736, 134.514 82.908, 131.097 85.429 M 173 91.500 L 173 96 180.500 96 L 188 96 188 91.500 L 188 87 180.500 87 L 173 87 173 91.500 M 28 99.860 C 28 104.993, 36.457 115.341, 48.500 124.943 C 58.800 133.155, 58.138 133, 82.836 133 L 104.772 133 111.136 128.776 C 123.691 120.442, 137 105.140, 137 99.040 C 137 97.012, 136.688 97, 82.500 97 L 28 97 28 99.860" stroke="none" fill="#f45e66" fill-rule="evenodd"/></svg>